<svg xmlns="http://www.w3.org/2000/svg" fill="none" viewBox="0 0 48 48"><path fill="url(#a)" d="M9 8.5A4.5 4.5 0 0 1 13.5 4H30a9 9 0 0 1 9 9v26.5a4.5 4.5 0 0 1-4.5 4.5H18a9 9 0 0 1-9-9V8.5z"/><path fill="url(#b)" d="M10 8.5A3.5 3.5 0 0 1 13.5 5H30a8 8 0 0 1 8 8v26.5a3.5 3.5 0 0 1-3.5 3.5H18a8 8 0 0 1-8-8V8.5z"/><path fill="url(#c)" d="M10 8.5A3.5 3.5 0 0 1 13.5 5H30a8 8 0 0 1 8 8v26.5a3.5 3.5 0 0 1-3.5 3.5H18a8 8 0 0 1-8-8V8.5z"/><path fill="url(#d)" d="M33 25.548V33a2 2 0 0 1-2 2h-7v-5.5a5.5 5.5 0 0 0-4.623-5.43L24 18.5l9 7.048z"/><path fill="url(#e)" d="M33 25.495a2 2 0 0 1-2 2h-7.379A5.5 5.5 0 0 0 18.5 24H15v-1.255a2.75 2.75 0 0 1 2.75-2.75H31l2-1.5v7z"/><path fill="url(#f)" fill-opacity=".6" d="M33 25.495a2 2 0 0 1-2 2h-7.379A5.5 5.5 0 0 0 18.5 24H15v-1.255a2.75 2.75 0 0 1 2.75-2.75H31l2-1.5v7z"/><path fill="url(#g)" fill-opacity=".1" d="M33 25.495a2 2 0 0 1-2 2h-7.379A5.5 5.5 0 0 0 18.5 24H15v-1.255a2.75 2.75 0 0 1 2.75-2.75H31l2-1.5v7z"/><path fill="url(#h)" d="M31 13a2 2 0 0 1 2 2v3.494a2 2 0 0 1-2 2.001H18.564A3.563 3.563 0 0 0 15.002 24H15v-7.25A3.75 3.75 0 0 1 18.75 13H31z"/><path fill="url(#i)" fill-opacity=".8" d="M31 13a2 2 0 0 1 2 2v3.494a2 2 0 0 1-2 2.001H18.564A3.563 3.563 0 0 0 15.002 24H15v-7.25A3.75 3.75 0 0 1 18.75 13H31z"/><rect width="20" height="20" x="3" y="25" fill="url(#j)" rx="4.5"/><rect width="20" height="20" x="3" y="25" fill="url(#k)" fill-opacity=".65" rx="4.5"/><path fill="#fff" d="m20.2 29-2.584 11.999-3.09.001-1.525-7.2-1.598 7.2H8.284L5.801 29.001h2.547l1.533 7.919 1.522-7.919h3.124l1.594 7.919 1.495-7.919L20.201 29z"/><defs><linearGradient id="a" x1="18.688" x2="25.772" y1="4" y2="43.852" gradientUnits="userSpaceOnUse"><stop stop-color="#BBB"/><stop offset="1" stop-color="#888"/></linearGradient><linearGradient id="b" x1="17.778" x2="24.218" y1="5" y2="42.963" gradientUnits="userSpaceOnUse"><stop stop-color="#fff"/><stop offset="1" stop-color="#EBEBEB"/></linearGradient><radialGradient id="c" cx="0" cy="0" r="1" gradientTransform="matrix(14.7778 30.0833 -22.1667 11.2812 18.944 14.896)" gradientUnits="userSpaceOnUse"><stop offset=".177" stop-color="#fff"/><stop offset="1" stop-color="#EFEFEF"/></radialGradient><radialGradient id="d" cx="0" cy="0" r="1" gradientTransform="matrix(50.0512 0 0 12.7872 32.08 35)" gradientUnits="userSpaceOnUse"><stop offset=".18" stop-color="#1657F4"/><stop offset=".575" stop-color="#0036C4"/></radialGradient><linearGradient id="e" x1="15" x2="28.785" y1="31.537" y2="31.537" gradientUnits="userSpaceOnUse"><stop stop-color="#66C0FF"/><stop offset=".256" stop-color="#0094F0"/></linearGradient><radialGradient id="f" cx="0" cy="0" r="1" gradientTransform="matrix(-12.1383 25.2414 -26.6807 -69.007 33 19.34)" gradientUnits="userSpaceOnUse"><stop offset=".14" stop-color="#D471FF"/><stop offset=".831" stop-color="#509DF5" stop-opacity="0"/></radialGradient><radialGradient id="g" cx="0" cy="0" r="1" gradientTransform="matrix(0 22.0764 -60.9881 0 30.367 36.554)" gradientUnits="userSpaceOnUse"><stop offset=".283" stop-color="#4F006F" stop-opacity="0"/><stop offset="1" stop-color="#4F006F"/></radialGradient><linearGradient id="h" x1="15" x2="32.995" y1="18.59" y2="18.877" gradientUnits="userSpaceOnUse"><stop stop-color="#9DEAFF"/><stop offset=".201" stop-color="#3BD5FF"/></linearGradient><radialGradient id="i" cx="0" cy="0" r="1" gradientTransform="matrix(-17.2332 4.16592 -10.7988 -42.4453 33 13.364)" gradientUnits="userSpaceOnUse"><stop offset=".061" stop-color="#E4A7FE"/><stop offset=".539" stop-color="#E4A7FE" stop-opacity="0"/></radialGradient><radialGradient id="j" cx="0" cy="0" r="1" gradientTransform="rotate(45 -28.678 16.121) scale(28.2843)" gradientUnits="userSpaceOnUse"><stop offset=".081" stop-color="#367AF2"/><stop offset=".872" stop-color="#001A8F"/></radialGradient><radialGradient id="k" cx="0" cy="0" r="1" gradientTransform="matrix(0 14 -15.9562 0 13 37)" gradientUnits="userSpaceOnUse"><stop offset=".587" stop-color="#2763E5" stop-opacity="0"/><stop offset=".974" stop-color="#58AAFE"/></radialGradient></defs></svg>